# xmcd
# 
# Track frame offsets:
#     150
#     16288
#     32397
#     45890
#     65632
#     79921
#     91133
#     109524
#     127187
#     146036
# 
# Disc length: 2207
# 
# Revision: 0
# Processed by: cddbd v1.5.2PL0 Copyright (c) Steve Scherf et al.
# Submitted via: fre:ac v1.0.31
# 
DISCID=7a089d0a
DTITLE=Seeds Family Worship - Seeds of Encouragement
DYEAR=2008
DGENRE=Folk
TTITLE0=The Secret
TTITLE1=Think About It
TTITLE2=Cast Your Cares
TTITLE3=Take Heart
TTITLE4=Wonderfully Made
TTITLE5=Servant of All
TTITLE6=Heavenly Lights
TTITLE7=Go
TTITLE8=Soar Like Eagles
TTITLE9=Joy
EXTD=
EXTT0=
EXTT1=
EXTT2=
EXTT3=
EXTT4=
EXTT5=
EXTT6=
EXTT7=
EXTT8=
EXTT9=
PLAYORDER=
